SplineFontDB: 3.2
FontName: Naboj
FullName: Naboj
FamilyName: Naboj
Weight: Regular
Copyright: Copyright (c) 2022, Adam Zahradnik
UComments: "2022-8-3: Created with FontForge (http://fontforge.org)"
Version: 001.000
ItalicAngle: 0
UnderlinePosition: -100
UnderlineWidth: 50
Ascent: 800
Descent: 200
InvalidEm: 0
LayerCount: 2
Layer: 0 0 "Back" 1
Layer: 1 0 "Fore" 0
XUID: [1021 692 -118540475 6033893]
FSType: 0
OS2Version: 0
OS2_WeightWidthSlopeOnly: 0
OS2_UseTypoMetrics: 1
CreationTime: 1659525961
ModificationTime: 1659899408
PfmFamily: 17
TTFWeight: 400
TTFWidth: 5
LineGap: 90
VLineGap: 0
OS2TypoAscent: 0
OS2TypoAOffset: 1
OS2TypoDescent: 0
OS2TypoDOffset: 1
OS2TypoLinegap: 90
OS2WinAscent: 0
OS2WinAOffset: 1
OS2WinDescent: 0
OS2WinDOffset: 1
HheadAscent: 0
HheadAOffset: 1
HheadDescent: 0
HheadDOffset: 1
OS2Vendor: 'PfEd'
Lookup: 258 0 0 "AT" { "AT-1" [150,15,0] } []
MarkAttachClasses: 1
DEI: 91125
KernClass2: 1 1 "AT-1"
 0 {}
LangName: 1033
Encoding: iso8859-2
UnicodeInterp: none
NameList: AGL For New Fonts
DisplaySize: -48
AntiAlias: 1
FitToEm: 0
WinInfo: 0 12 14
BeginPrivate: 1
BlueValues 15 [-20 0 800 801]
EndPrivate
TeXData: 1 0 0 346030 173015 115343 0 1048576 115343 783286 444596 497025 792723 393216 433062 380633 303038 157286 324010 404750 52429 2506097 1059062 262144
BeginChars: 259 61

StartChar: A
Encoding: 65 65 0
Width: 1048
Flags: HW
LayerCount: 2
Fore
SplineSet
84 36 m 0
 82 41 81 47 81 55 c 0
 81 67 84 82 93 108 c 0
 109 152 144 224 184 302 c 0
 225 379 270 462 311 538 c 0
 352 614 391 680 415 721 c 0
 439 762 449 774 460 783 c 0
 471 792 483 797 501 799 c 0
 510 800 520 800 530 800 c 0
 541 800 551 799 560 798 c 0
 579 795 592 791 603 782 c 0
 615 774 625 763 648 724 c 0
 671 685 707 619 747 538 c 0
 787 457 832 361 871 278 c 0
 910 195 944 123 958 83 c 0
 965 61 968 47 968 38 c 0
 968 30 966 26 964 22 c 0
 960 13 956 7 931 4 c 0
 915 1 891 0 867 0 c 0
 856 0 845 0 835 1 c 0
 805 2 800 6 788 14 c 0
 778 22 765 33 755 58 c 0
 744 84 726 117 714 139 c 0
 703 162 697 172 687 178 c 0
 678 184 652 185 631 185 c 0
 610 186 577 186 541 186 c 0
 516 186 488 186 462 186 c 0
 450 186 438 186 428 186 c 0
 398 186 373 186 363 182 c 0
 354 178 351 171 339 146 c 0
 327 122 306 79 293 53 c 0
 276 22 268 4 232 4 c 0
 231 4 230 4 229 4 c 0
 217 3 204 3 189 3 c 0
 166 3 142 4 124 7 c 0
 95 13 89 24 84 36 c 0
533 552 m 0
 531 552 527 550 522 546 c 0
 500 529 433 405 430 376 c 0
 430 373 430 371 430 369 c 0
 430 355 435 350 455 346 c 0
 463 344 502 343 540 343 c 0
 609 343 622 343 622 360 c 0
 622 363 622 367 621 371 c 0
 617 403 557 532 540 548 c 0
 537 551 535 553 533 552 c 0
EndSplineSet
Validated: 1
EndChar

StartChar: B
Encoding: 66 66 1
Width: 772
Flags: HW
LayerCount: 2
Fore
SplineSet
360 800 m 0
 412 799 463 798 504 787 c 1
 504 784 l 1
 607 756 660 666 660 579 c 0
 660 524 638 469 595 433 c 0
 584 423 577 419 577 413 c 0
 577 391 675 369 690 247 c 0
 691 237 692 227 692 216 c 0
 692 161 674 94 635 55 c 0
 587 7 510 0 396 -0 c 0
 378 0 359 0 339 0 c 0
 277 1 222 3 187 6 c 0
 128 10 96 39 85 93 c 0
 81 123 81 166 81 218 c 0
 81 239 81 261 81 285 c 2
 81 548 l 2
 81 582 80 613 80 639 c 0
 80 674 81 702 86 723 c 0
 105 800 207 800 360 800 c 0
337 656 m 0
 279 656 279 655 271 646 c 0
 263 637 259 597 259 558 c 0
 259 521 263 486 272 478 c 0
 279 472 289 470 339 470 c 0
 371 470 406 473 418 475 c 0
 459 484 481 521 481 560 c 0
 481 598 459 638 414 651 c 0
 402 654 374 656 337 656 c 0
354 326 m 0
 274 324 264 320 262 282 c 0
 262 275 261 267 261 258 c 0
 261 249 262 241 262 231 c 0
 262 154 264 147 311 142 c 0
 333 141 353 140 371 140 c 0
 462 140 505 158 523 210 c 0
 527 220 528 229 528 237 c 0
 528 281 486 305 479 308 c 0
 467 315 448 326 372 326 c 0
 366 326 360 326 354 326 c 0
EndSplineSet
Validated: 1
EndChar

StartChar: C
Encoding: 67 67 2
Width: 878
Flags: HW
LayerCount: 2
Fore
SplineSet
737 661 m 0
 768 614 769 615 789 564 c 1
 789 562 789 560 789 558 c 0
 789 517 727 498 679 498 c 0
 653 498 631 504 626 515 c 0
 609 553 624 524 604 553 c 0
 562 614 505 631 456 631 c 0
 414 631 378 619 360 610 c 0
 291 577 256 492 256 407 c 0
 256 312 299 217 388 190 c 0
 415 182 455 173 489 173 c 0
 500 173 509 174 518 176 c 0
 555 184 593 195 615 218 c 0
 626 230 648 279 673 286 c 0
 688 290 705 293 721 293 c 0
 760 293 797 280 798 253 c 0
 798 252 798 250 798 249 c 0
 798 185 754 135 714 94 c 0
 638 18 536 0 456 -0 c 0
 386 0 333 14 329 15 c 0
 157 63 79 231 79 398 c 0
 79 491 103 583 149 654 c 0
 215 754 331 802 446 802 c 0
 562 802 676 753 737 661 c 0
EndSplineSet
Validated: 1
EndChar

StartChar: D
Encoding: 68 68 3
Width: 824
Flags: HW
LayerCount: 2
Fore
SplineSet
190 800 m 1
 261 794 289 795 368 794 c 0
 374 794 381 795 387 795 c 0
 622 795 745 589 745 389 c 0
 745 222 659 58 479 20 c 0
 402 4 337 3 264 3 c 2
 236 3 l 1
 223 3 l 1
 214 2 174 0 161 0 c 0
 160 0 159 0 158 0 c 0
 136 0 82 23 82 105 c 2
 82 115 l 1
 83 172 84 229 84 292 c 0
 84 393 82 506 80 646 c 0
 80 702 87 711 88 722 c 0
 90 748 141 796 190 800 c 1
376 629 m 0
 361 628 351 628 343 628 c 2
 326 628 l 2
 318 628 309 628 293 627 c 0
 271 626 255 602 254 586 c 0
 253 564 252 543 252 525 c 0
 252 517 253 510 253 503 c 0
 252 482 251 459 251 436 c 0
 251 359 255 278 256 209 c 0
 258 185 264 170 287 170 c 0
 288 170 289 171 290 171 c 2
 301 171 l 1
 323 171 l 2
 329 171 333 171 340 172 c 0
 412 181 466 188 517 241 c 0
 555 282 574 342 574 403 c 0
 574 515 511 629 382 629 c 0
 380 629 378 629 376 629 c 0
EndSplineSet
Validated: 1
EndChar

StartChar: E
Encoding: 69 69 4
Width: 732
InSpiro: 1
Flags: HW
LayerCount: 2
Fore
SplineSet
454 149 m 2
 627 149 649 149 649 75 c 0
 649 66 649 56 647 47 c 0
 644 31 619 6 583 2 c 0
 568 0 522 -1 467 -1 c 0
 365 -1 231 2 188 6 c 0
 128 10 96 41 85 95 c 0
 81 125 81 167 81 220 c 0
 81 331 81 442 81 553 c 0
 81 587 80 618 80 645 c 0
 80 680 81 708 86 729 c 0
 101 790 168 792 223 799 c 1
 242 799 248 800 261 800 c 0
 268 800 276 800 289 799 c 1
 383 799 l 2
 468 799 563 799 574 798 c 0
 589 797 637 785 646 767 c 0
 650 758 652 740 652 723 c 0
 652 690 652 662 585 651 c 0
 564 647 486 647 424 647 c 2
 342 647 l 1
 298 645 289 642 268 619 c 0
 262 612 260 602 260 582 c 0
 260 569 260 553 262 531 c 0
 266 475 266 475 341 475 c 0
 350 475 402 476 446 476 c 0
 515 476 548 476 555 442 c 0
 558 425 560 409 560 393 c 0
 560 331 541 327 464 327 c 0
 432 327 395 328 362 328 c 0
 316 328 278 326 271 314 c 0
 265 305 262 280 262 252 c 0
 262 224 265 193 273 170 c 0
 278 164 285 151 310 149 c 1
 454 149 l 2
  Spiro
    454 149 ]
    581.358 146.267 o
    636.918 127.041 o
    649 75 o
    648.926 65.7502 o
    648.407 56.2498 o
    647 47 o
    637.091 29.1298 o
    614.898 11.8742 o
    583 2 o
    558.515 0.334667 o
    518.139 -0.667333 o
    467 -1 o
    358.999 -0.0758511 o
    256.688 2.41052 o
    188 6 o
    137.116 18.8303 o
    103.233 48.853 o
    85 95 o
    82.187 128.925 o
    81.1477 170.749 o
    81 220 o
    81 553 o
    80.7412 585.931 o
    80.2588 616.733 o
    80 645 o
    80.4434 677.636 o
    82.2249 705.692 o
    86 729 o
    115.92 772.675 o
    166.426 791.307 o
    223 799 v
    238.395 799.259 o
    249.603 799.741 o
    261 800 o
    268.473 799.963 o
    277.529 799.703 o
    289 799 v
    383 799 ]
    467.771 798.963 o
    538.538 798.703 o
    574 798 o
    597.304 793.526 o
    626.694 782.801 o
    646 767 o
    649.331 755.384 o
    651.335 739.946 o
    652 723 o
    649.526 692.139 o
    632.118 667.201 o
    585 651 o
    547.755 648.187 o
    488.565 647.148 o
    424 647 [
    342 647 v
    307.952 643.968 o
    286.723 636.025 o
    268 619 o
    263.263 610.751 o
    260.739 598.912 o
    260 582 o
    260.074 567.904 o
    260.593 551.093 o
    262 531 o
    267.582 491.617 o
    288.108 477.068 o
    341 475 o
    362.412 475.259 o
    401.266 475.741 o
    446 476 o
    503.324 474.745 o
    538.988 465.911 o
    555 442 o
    557.627 425.313 o
    559.372 409.021 o
    560 393 o
    552.239 348.363 o
    523.068 330.325 o
    464 327 o
    430.701 327.259 o
    395.965 327.741 o
    362 328 o
    319.557 327.039 o
    287.456 322.957 o
    271 314 o
    266.004 300.166 o
    262.998 278.494 o
    262 252 o
    263.072 223.436 o
    266.597 195.232 o
    273 170 o
    279.251 162.342 o
    290.422 153.993 o
    310 149 v
    0 0 z
  EndSpiro
EndSplineSet
Validated: 1
EndChar

StartChar: F
Encoding: 70 70 5
Width: 735
Flags: HW
LayerCount: 2
Fore
SplineSet
224 799 m 1
 243 799 249 800 262 800 c 0
 269 800 277 800 290 799 c 0
 315 799 349 799 384 799 c 0
 469 799 565 799 576 798 c 0
 591 797 640 785 649 767 c 0
 653 758 655 739 655 722 c 0
 655 707 654 692 651 685 c 0
 645 669 622 656 587 650 c 0
 566 646 487 646 425 646 c 0
 383 646 349 646 343 646 c 0
 299 644 290 641 269 618 c 0
 263 610 260 599 260 577 c 0
 260 565 261 549 262 529 c 0
 265 473 265 473 342 473 c 0
 351 473 404 474 448 474 c 0
 470 474 489 474 500 473 c 0
 527 471 551 468 557 440 c 0
 560 422 562 403 562 386 c 0
 562 378 562 370 561 362 c 0
 558 337 543 328 508 325 c 0
 495 324 479 324 462 324 c 0
 430 324 394 325 362 325 c 0
 317 325 280 322 272 311 c 0
 266 302 264 281 264 258 c 0
 264 249 264 240 265 230 c 0
 265 189 266 134 266 95 c 0
 266 56 251 0 208 0 c 2
 140 0 l 2
 94 0 84 41 82 89 c 0
 80 137 80 201 80 285 c 2
 80 551 l 2
 80 583 80 612 80 638 c 0
 80 676 81 707 86 729 c 0
 101 790 169 792 224 799 c 1
EndSplineSet
Validated: 1
EndChar

StartChar: G
Encoding: 71 71 6
Width: 880
Flags: HW
LayerCount: 2
Fore
SplineSet
600 772 m 4
 651 749 702 714 737 661 c 4
 768 614 769 615 789 564 c 5
 789 562 789 560 789 558 c 4
 789 518 728 499 680 499 c 4
 654 499 631 505 626 516 c 4
 609 554 624 524 604 553 c 4
 562 614 506 631 457 631 c 4
 416 631 379 619 361 610 c 4
 292 577 256 492 256 406 c 4
 256 312 299 217 388 190 c 4
 428 178 460 174 488 174 c 4
 563 174 597 208 611 224 c 4
 621 235 626 244 626 251 c 4
 626 265 604 269 562 269 c 4
 554 269 546 269 537 269 c 4
 510 269 479 273 468 305 c 5
 466 316 465 327 465 336 c 4
 465 406 514 406 558 407 c 4
 561 407 565 407 568 407 c 4
 589 407 611 405 644 405 c 4
 672 403 730 407 765 396 c 4
 783 390 799 375 799 353 c 4
 799 352 799 352 799 351 c 4
 799 343 800 334 800 322 c 4
 800 267 790 171 714 94 c 4
 639 18 537 0 457 -0 c 4
 387 0 333 14 329 15 c 4
 158 63 79 232 79 399 c 4
 79 492 103 583 149 654 c 4
 222 765 342 800 446 800 c 4
 507 800 563 788 600 772 c 4
EndSplineSet
Validated: 1
EndChar

StartChar: H
Encoding: 72 72 7
Width: 901
Flags: HW
LayerCount: 2
Fore
SplineSet
80 79 m 4
 80 89 81 100 81 112 c 4
 82 129 82 147 82 166 c 4
 82 208 81 251 81 286 c 6
 81 311 l 5
 82 336 82 365 82 396 c 4
 82 480 80 578 80 652 c 4
 80 708 81 750 87 759 c 4
 105 786 114 800 181 800 c 4
 189 800 199 799 209 799 c 5
 269 792 275 760 276 706 c 4
 277 660 278 594 278 529 c 6
 278 522 l 6
 278 489 285 471 317 471 c 6
 338 471 l 6
 352 471 361 471 376 470 c 4
 445 470 498 470 586 472 c 5
 593 472 l 6
 620 472 632 488 632 519 c 4
 632 573 627 651 627 704 c 4
 627 733 629 755 633 761 c 4
 655 794 660 801 724 801 c 4
 807 801 818 775 819 709 c 4
 820 673 822 626 822 577 c 4
 822 554 822 530 820 506 c 4
 818 476 818 443 818 410 c 4
 818 322 821 232 821 160 c 4
 821 102 819 57 812 37 c 4
 805 18 781 2 771 1 c 5
 680 1 l 6
 666 1 642 19 634 42 c 4
 628 58 627 105 627 159 c 4
 627 191 627 225 628 256 c 5
 628 261 l 6
 628 293 609 308 587 308 c 4
 531 308 486 309 437 309 c 4
 400 309 362 308 315 307 c 4
 299 307 276 304 276 265 c 6
 276 260 l 5
 277 211 278 172 278 141 c 4
 278 88 276 57 268 36 c 4
 261 17 234 3 224 2 c 4
 214 1 141 0 127 0 c 4
 126 0 80 7 80 79 c 4
EndSplineSet
Validated: 1
EndChar

StartChar: I
Encoding: 73 73 8
Width: 360
Flags: HW
LayerCount: 2
Fore
SplineSet
206 799 m 5
 269 792 277 760 277 718 c 4
 277 715 277 712 277 709 c 4
 277 693 277 676 277 657 c 4
 277 611 277 558 278 505 c 5
 277 476 276 447 276 416 c 4
 276 327 280 234 280 160 c 4
 280 103 278 57 269 36 c 4
 261 17 231 3 221 2 c 4
 211 1 157 0 141 -0 c 4
 125 0 98 16 89 39 c 4
 83 55 81 63 81 90 c 6
 81 132 l 6
 81 172 79 231 79 277 c 4
 79 291 80 304 80 314 c 4
 81 342 82 376 82 413 c 4
 82 489 80 575 80 643 c 4
 80 705 82 751 88 760 c 4
 111 792 120 800 171 800 c 4
 181 800 192 799 206 799 c 5
EndSplineSet
Validated: 1
EndChar

StartChar: J
Encoding: 74 74 9
Width: 766
Flags: HW
LayerCount: 2
Fore
SplineSet
513 515 m 0
 513 520 513 524 513 528 c 0
 513 603 497 618 406 618 c 0
 385 618 361 617 331 616 c 0
 315 615 297 615 279 615 c 0
 233 615 187 617 157 619 c 0
 103 622 87 626 81 676 c 0
 80 683 80 694 80 706 c 0
 80 733 83 767 96 781 c 0
 110 795 133 798 295 800 c 0
 354 800 414 799 471 799 c 0
 490 799 509 799 527 799 c 0
 563 799 595 799 616 796 c 1
 616 796 l 1
 682 788 683 767 686 514 c 0
 686 491 686 470 686 451 c 0
 686 272 678 217 658 168 c 0
 603 35 482 -1 379 -1 c 0
 311 -1 252 15 222 28 c 0
 119 76 83 164 83 218 c 0
 83 235 87 249 93 257 c 0
 99 265 106 272 127 275 c 0
 127 275 146 277 169 277 c 0
 195 277 226 274 242 261 c 0
 249 254 254 246 262 235 c 0
 285 196 329 177 374 177 c 0
 416 177 460 194 485 228 c 1
 500 254 512 273 514 327 c 0
 515 348 515 372 515 397 c 0
 515 438 514 482 513 515 c 0
EndSplineSet
Validated: 1
EndChar

StartChar: K
Encoding: 75 75 10
Width: 857
Flags: HW
LayerCount: 2
Fore
SplineSet
736 800 m 5
 762 796 771 780 771 765 c 4
 771 756 768 748 764 743 c 4
 743 716 697 669 654 625 c 4
 575 553 539 510 466 440 c 4
 461 436 440 415 440 402 c 4
 440 389 455 380 468 367 c 4
 488 348 510 327 531 306 c 4
 596 233 671 168 740 96 c 5
 757 74 777 53 777 34 c 4
 777 22 768 10 745 0 c 5
 732 0 660 2 640 2 c 4
 620 2 584 14 557 37 c 4
 474 120 397 191 316 269 c 4
 308 276 301 284 295 280 c 4
 289 276 290 273 290 262 c 4
 291 236 291 206 291 176 c 4
 291 118 289 61 279 38 c 4
 271 19 240 6 229 5 c 4
 218 4 149 4 133 4 c 4
 117 4 95 23 86 46 c 4
 82 57 80 69 80 82 c 4
 80 93 81 104 82 116 c 4
 83 131 83 147 83 163 c 4
 83 208 81 257 81 294 c 4
 81 302 81 309 81 315 c 4
 82 341 83 373 83 407 c 4
 83 485 80 576 80 646 c 4
 80 707 82 753 89 762 c 4
 102 780 108 795 146 796 c 4
 165 796 180 797 193 797 c 4
 241 797 248 793 264 776 c 4
 284 753 286 650 288 556 c 4
 288 542 285 531 295 526 c 4
 296 525 298 525 299 525 c 4
 307 525 315 538 323 546 c 4
 351 573 373 596 400 624 c 4
 449 673 553 773 580 783 c 4
 607 793 607 799 654 799 c 4
 684 799 698 800 719 800 c 4
 724 800 730 800 736 800 c 5
EndSplineSet
Validated: 1
EndChar

StartChar: L
Encoding: 76 76 11
Width: 807
Flags: HW
LayerCount: 2
Fore
SplineSet
174 799 m 4
 175 799 177 799 181 799 c 4
 200 799 254 798 269 779 c 4
 277 769 281 745 281 700 c 4
 281 655 281 573 282 498 c 4
 282 428 281 359 281 308 c 4
 281 274 281 248 283 235 c 4
 287 199 291 186 323 182 c 4
 362 180 403 179 443 179 c 4
 491 179 537 180 578 180 c 4
 639 180 686 178 703 170 c 4
 717 163 726 137 727 128 c 4
 727 125 727 116 727 106 c 4
 727 85 727 57 727 48 c 4
 727 47 722 1 657 1 c 4
 654 1 650 1 647 1 c 5
 615 0 579 0 541 -0 c 4
 434 0 310 2 217 3 c 4
 210 3 203 3 196 3 c 4
 169 3 143 4 131 4 c 4
 116 4 94 25 85 48 c 4
 81 59 79 71 79 84 c 4
 79 95 80 106 81 118 c 4
 82 135 82 153 82 172 c 4
 82 214 81 257 81 292 c 4
 81 301 81 309 81 317 c 4
 82 346 83 380 83 417 c 4
 83 493 81 579 81 647 c 4
 81 709 83 755 89 764 c 4
 112 798 112 797 174 799 c 4
EndSplineSet
Validated: 1
EndChar

StartChar: M
Encoding: 77 77 12
Width: 991
Flags: HW
LayerCount: 2
Fore
SplineSet
733 267 m 0
 733 316 736 337 736 408 c 0
 736 432 735 457 735 481 c 1
 695 414 646 334 605 278 c 0
 579 243 563 224 504 224 c 0
 444 224 433 230 395 281 c 0
 394 283 329 370 252 485 c 1
 251 460 251 433 251 406 c 0
 251 324 254 238 254 168 c 0
 254 107 252 59 244 37 c 0
 237 18 213 5 204 4 c 1
 122 4 l 2
 121 4 82 4 82 115 c 0
 82 164 80 223 80 270 c 0
 80 286 81 301 81 313 c 0
 81 316 82 372 82 500 c 0
 82 564 82 645 81 747 c 0
 81 776 94 798 120 799 c 0
 133 799 150 800 167 800 c 0
 184 800 201 799 215 799 c 0
 250 799 262 784 277 761 c 0
 289 742 303 720 313 702 c 0
 416 519 476 416 499 414 c 0
 518 414 629 631 668 693 c 0
 690 728 696 736 706 755 c 0
 726 793 749 798 772 799 c 0
 781 799 791 800 803 800 c 0
 826 800 852 799 873 796 c 0
 905 792 909 752 909 719 c 2
 909 700 l 1
 910 663 911 616 911 566 c 0
 911 544 911 521 910 498 c 0
 909 468 908 437 908 405 c 0
 908 319 911 230 911 159 c 0
 911 101 909 56 902 34 c 0
 895 15 871 1 862 0 c 1
 855 -0 l 2
 836 0 787 2 776 2 c 0
 771 2 734 5 734 109 c 2
 734 145 l 2
 734 187 733 230 733 267 c 0
EndSplineSet
Validated: 1
EndChar

StartChar: N
Encoding: 78 78 13
Width: 965
Flags: HW
LayerCount: 2
Fore
SplineSet
813 798 m 4
 874 791 875 765 879 717 c 4
 883 671 884 589 884 496 c 4
 884 436 885 383 885 338 c 4
 885 73 876 52 848 27 c 4
 831 14 807 9 784 9 c 4
 749 9 716 19 715 19 c 4
 691 27 674 50 651 68 c 4
 628 87 600 116 551 167 c 4
 474 250 396 345 331 417 c 4
 307 443 292 456 282 456 c 4
 269 456 266 435 266 399 c 4
 266 387 267 373 267 358 c 4
 269 236 270 160 270 112 c 4
 270 32 267 29 256 18 c 4
 249 11 243 4 221 2 c 4
 211 1 198 0 184 -0 c 4
 152 0 114 5 100 23 c 4
 83 46 82 88 80 265 c 4
 79 318 79 372 79 423 c 4
 79 566 82 692 89 738 c 4
 95 772 101 793 157 795 c 4
 161 795 164 795 168 795 c 4
 240 795 266 767 287 745 c 4
 352 676 600 351 666 300 c 5
 674 296 680 294 684 294 c 4
 700 294 697 319 699 345 c 4
 699 348 699 351 699 354 c 4
 699 406 694 529 694 629 c 4
 694 663 694 695 696 721 c 4
 699 770 703 790 747 798 c 4
 757 799 767 800 779 800 c 4
 791 800 803 799 813 798 c 4
EndSplineSet
Validated: 1
EndChar

StartChar: O
Encoding: 79 79 14
Width: 903
Flags: HW
LayerCount: 2
Fore
SplineSet
600 773 m 4
 748 707 824 545 824 387 c 4
 824 216 735 48 552 10 c 4
 521 3 487 0 452 -0 c 4
 409 0 366 5 329 15 c 4
 262 34 216 68 179 110 c 4
 109 188 80 294 80 397 c 4
 80 494 106 587 149 654 c 4
 222 765 344 801 448 801 c 4
 509 801 563 789 600 773 c 4
532 615 m 4
 513 624 484 631 452 631 c 4
 374 631 278 591 260 446 c 4
 258 434 257 420 257 403 c 4
 257 355 267 293 309 244 c 4
 345 202 400 180 455 180 c 4
 535 180 615 226 640 326 c 4
 646 351 649 376 649 401 c 4
 649 496 604 582 532 615 c 4
EndSplineSet
Validated: 1
EndChar

StartChar: P
Encoding: 80 80 15
Width: 750
Flags: HW
LayerCount: 2
Fore
SplineSet
364 800 m 4
 417 799 469 798 511 787 c 5
 511 784 l 5
 597 761 670 683 670 575 c 4
 670 542 663 506 647 467 c 4
 631 428 615 396 573 369 c 4
 515 332 511 331 421 319 c 4
 382 314 285 323 272 302 c 4
 266 291 264 272 264 253 c 4
 264 242 265 230 265 221 c 4
 265 201 265 185 267 170 c 6
 267 170 268 152 268 128 c 4
 268 112 268 94 266 78 c 4
 261 26 245 9 219 3 c 4
 205 0 191 2 168 0 c 5
 108 4 96 6 85 61 c 4
 80 103 80 191 80 276 c 6
 80 543 l 6
 80 581 79 614 79 643 c 4
 79 675 80 701 85 721 c 4
 104 799 208 800 364 800 c 4
308 653 m 4
 283 652 279 651 274 644 c 4
 266 634 262 593 262 553 c 4
 262 516 266 480 275 472 c 4
 282 466 292 465 343 465 c 4
 376 465 412 466 424 469 c 4
 466 478 488 517 488 556 c 4
 488 595 466 635 420 648 c 4
 408 652 379 653 341 653 c 4
 327 653 316 653 308 653 c 4
EndSplineSet
Validated: 1
EndChar

StartChar: R
Encoding: 82 82 16
Width: 769
Flags: HW
LayerCount: 2
Fore
SplineSet
265 274 m 5
 265 270 264 263 264 254 c 4
 264 245 265 234 265 222 c 4
 265 212 265 203 265 195 c 4
 265 187 265 179 266 171 c 6
 266 171 268 148 268 120 c 4
 268 106 267 92 266 78 c 4
 261 26 245 10 219 4 c 4
 205 1 190 3 167 1 c 5
 107 5 96 7 85 62 c 4
 80 104 80 192 80 277 c 6
 80 543 l 6
 80 581 79 614 79 643 c 4
 79 675 80 701 85 721 c 4
 104 799 208 800 364 800 c 4
 417 799 468 798 510 787 c 5
 510 784 l 5
 596 761 669 683 669 575 c 4
 669 542 662 506 646 467 c 4
 630 428 614 397 572 370 c 4
 521 338 510 333 446 324 c 5
 458 311 469 299 481 286 c 4
 536 218 600 156 658 89 c 5
 672 68 689 48 689 31 c 4
 689 20 682 10 662 0 c 5
 651 0 577 2 560 2 c 4
 543 2 513 13 490 34 c 4
 413 118 339 194 265 274 c 5
307 653 m 4
 282 652 279 651 274 644 c 4
 266 634 261 591 261 550 c 4
 261 514 265 480 274 472 c 4
 281 466 291 465 342 465 c 4
 375 465 411 466 423 469 c 4
 465 478 487 516 487 555 c 4
 487 594 465 635 419 648 c 4
 407 652 378 653 340 653 c 4
 326 653 315 653 307 653 c 4
EndSplineSet
Validated: 1
EndChar

StartChar: S
Encoding: 83 83 17
Width: 860
Flags: HW
LayerCount: 2
Fore
SplineSet
728 679 m 4
 759 638 760 638 780 593 c 5
 780 591 780 589 780 587 c 4
 780 552 723 537 676 537 c 4
 650 537 628 542 621 551 c 4
 591 593 576 613 524 634 c 4
 498 644 471 653 444 653 c 4
 443 653 441 653 440 653 c 4
 414 652 327 646 289 591 c 4
 282 582 276 565 276 548 c 4
 276 535 280 522 291 513 c 4
 316 493 370 471 443 471 c 4
 444 471 444 471 445 471 c 4
 566 471 776 397 776 261 c 4
 776 259 776 258 776 256 c 4
 774 195 764 153 740 124 c 4
 677 46 623 5 428 0 c 4
 422 0 416 0 410 -0 c 4
 361 0 315 7 270 24 c 4
 220 44 168 74 133 121 c 4
 102 162 101 162 81 207 c 5
 81 209 81 210 81 212 c 4
 81 247 141 264 189 264 c 4
 215 264 238 259 243 249 c 5
 265 217 245 241 265 216 c 4
 279 199 318 148 415 148 c 4
 417 148 419 148 421 148 c 4
 450 149 490 149 519 158 c 4
 548 167 576 173 597 196 c 4
 613 213 620 228 620 242 c 4
 620 296 510 323 412 327 c 4
 321 331 248 356 191 384 c 4
 134 412 101 463 95 537 c 4
 94 544 94 550 94 556 c 4
 94 617 120 647 150 687 c 4
 201 756 321 800 443 800 c 4
 553 800 664 764 728 679 c 4
EndSplineSet
Validated: 1
EndChar

StartChar: T
Encoding: 84 84 18
Width: 951
Flags: HW
LayerCount: 2
Fore
SplineSet
373 799 m 1
 404 798 437 797 470 797 c 0
 555 797 644 800 714 800 c 0
 771 800 816 798 837 790 c 0
 856 782 869 753 870 743 c 0
 871 733 871 669 871 654 c 0
 871 639 852 619 829 610 c 1
 771 609 737 606 698 606 c 0
 680 606 661 607 639 608 c 0
 638 608 636 608 635 608 c 0
 605 608 566 587 566 552 c 0
 566 550 566 549 566 547 c 0
 566 501 564 397 564 296 c 0
 564 245 565 195 566 153 c 0
 564 125 569 68 555 33 c 0
 547 14 517 2 507 1 c 0
 497 0 432 0 417 0 c 0
 402 0 385 15 376 38 c 0
 368 58 366 126 366 188 c 0
 366 250 368 307 368 309 c 0
 369 336 370 363 370 389 c 0
 370 424 369 458 369 490 c 0
 369 509 369 528 370 545 c 0
 369 586 344 605 295 607 c 0
 274 608 253 608 235 608 c 0
 221 608 209 608 197 608 c 0
 165 608 140 609 128 614 c 0
 88 631 80 650 80 700 c 0
 80 712 80 726 81 743 c 0
 83 765 106 793 126 795 c 0
 139 797 144 797 148 797 c 0
 150 797 152 797 154 797 c 0
 157 797 162 797 171 798 c 0
 208 799 255 800 305 800 c 0
 327 800 351 800 373 799 c 1
EndSplineSet
Validated: 1
EndChar

StartChar: U
Encoding: 85 85 19
Width: 912
Flags: HW
LayerCount: 2
Fore
SplineSet
188 800 m 6
 262 800 276 775 277 706 c 4
 279 597 278 495 283 377 c 4
 288 309 296 260 333 219 c 4
 368 180 397 165 439 165 c 6
 447 165 l 5
 493 167 545 169 580 211 c 4
 615 253 634 283 639 364 c 5
 639 409 637 515 637 606 c 4
 637 684 638 752 644 760 c 4
 666 793 670 798 728 799 c 5
 739 799 l 6
 822 799 830 768 831 708 c 4
 832 664 832 625 832 587 c 4
 832 505 830 429 827 323 c 5
 827 319 l 6
 827 229 763 138 723 97 c 4
 645 18 544 -1 464 -1 c 4
 400 -1 350 11 337 15 c 4
 207 51 130 163 104 262 c 4
 80 348 80 666 80 670 c 4
 80 718 82 751 87 759 c 4
 108 791 112 798 175 800 c 5
 188 800 l 6
EndSplineSet
Validated: 1
EndChar

StartChar: V
Encoding: 86 86 20
Width: 1048
Flags: HW
LayerCount: 2
Fore
SplineSet
835 799 m 4
 843 800 852 800 862 800 c 4
 887 800 913 798 931 796 c 4
 955 793 968 785 968 763 c 4
 968 729 937 660 871 522 c 4
 737 239 646 47 603 18 c 4
 586 6 557 0 528 -0 c 4
 501 0 475 5 460 17 c 4
 418 51 135 573 93 692 c 4
 85 715 81 733 81 747 c 4
 81 787 113 796 165 796 c 4
 181 796 199 795 218 794 c 4
 219 794 220 794 221 794 c 4
 257 794 266 776 283 745 c 4
 285 742 407 471 430 424 c 4
 493 294 515 248 532 248 c 4
 535 248 537 249 540 252 c 4
 567 276 714 632 716 636 c 4
 736 686 750 714 761 740 c 4
 772 765 784 776 795 784 c 4
 806 792 805 797 835 799 c 4
EndSplineSet
Validated: 1
EndChar

StartChar: W
Encoding: 87 87 21
Width: 1203
Flags: HW
LayerCount: 2
Fore
SplineSet
1042 800 m 4
 1052 800 1062 801 1071 800 c 4
 1077 800 1083 798 1089 797 c 4
 1111 791 1122 778 1122 752 c 4
 1122 711 1096 637 1042 502 c 4
 1017 440 920 208 861 82 c 4
 835 26 823 1 769 1 c 4
 738 1 723 1 704 18 c 4
 694 26 691 25 673 64 c 4
 657 99 648 152 620 223 c 4
 614 239 599 243 593 221 c 4
 565 148 555 98 538 62 c 4
 520 23 512 24 502 16 c 4
 490 5 467 0 433 0 c 4
 386 0 375 8 342 79 c 4
 289 192 277 219 162 500 c 4
 111 629 80 706 80 749 c 4
 80 775 91 789 114 795 c 4
 120 796 126 797 132 797 c 4
 142 797 156 798 170 798 c 4
 184 798 199 797 208 797 c 4
 209 797 210 797 211 797 c 4
 240 797 245 780 258 749 c 4
 268 723 288 672 298 648 c 4
 342 537 338 541 381 433 c 4
 426 320 438 280 448 280 c 4
 458 280 458 289 469 315 c 4
 480 341 497 419 507 447 c 4
 517 475 532 506 556 518 c 4
 568 524 586 527 603 527 c 4
 620 527 636 524 648 519 c 4
 672 508 689 477 699 449 c 4
 709 421 736 338 744 317 c 4
 750 302 751 283 763 282 c 4
 764 282 l 4
 776 282 791 314 833 426 c 4
 876 540 882 549 921 653 c 4
 931 677 945 724 955 750 c 4
 968 781 974 798 1003 798 c 4
 1004 798 1005 798 1006 798 c 4
 1015 799 1032 800 1042 800 c 4
EndSplineSet
Validated: 1
EndChar

StartChar: X
Encoding: 88 88 22
Width: 915
Flags: HW
LayerCount: 2
Fore
SplineSet
825 71 m 5
 830 63 833 55 833 47 c 4
 833 24 815 3 789 3 c 4
 759 3 728 2 698 2 c 5
 651 9 626 66 596 98 c 4
 572 128 546 157 521 186 c 4
 498 213 481 244 454 268 c 5
 410 213 368 158 321 105 c 4
 300 80 279 55 260 29 c 4
 246 8 221 0 197 0 c 4
 193 0 188 1 184 1 c 4
 142 5 80 -4 80 38 c 4
 80 47 83 57 89 71 c 4
 113 117 152 152 183 193 c 4
 220 243 260 291 298 340 c 4
 311 357 323 375 336 393 c 4
 341 400 344 407 336 415 c 4
 289 466 252 525 207 579 c 4
 168 629 125 676 90 729 c 4
 85 737 82 745 82 753 c 4
 82 776 100 797 126 797 c 4
 156 797 177 798 192 798 c 4
 225 798 227 796 234 793 c 4
 253 786 266 772 277 756 c 4
 291 739 305 721 319 703 c 4
 343 673 369 644 394 614 c 4
 417 587 434 556 461 532 c 5
 505 588 549 642 595 695 c 4
 616 720 636 745 655 771 c 4
 666 787 682 796 702 799 c 4
 708 800 714 800 720 800 c 4
 732 800 744 799 757 799 c 4
 780 796 806 801 825 786 c 5
 832 778 835 768 835 759 c 4
 835 733 814 706 799 688 c 4
 723 596 647 503 578 406 c 4
 571 394 571 392 580 382 c 6
 825 71 l 5
EndSplineSet
Validated: 1
EndChar

StartChar: Y
Encoding: 89 89 23
Width: 916
Flags: HW
LayerCount: 2
Fore
SplineSet
196 799 m 4
 217 798 237 797 259 770 c 4
 274 752 273 749 303 713 c 4
 332 679 401 599 417 576 c 4
 435 550 437 548 460 524 c 5
 495 567 512 592 531 615 c 4
 641 746 641 745 657 768 c 4
 670 786 686 800 719 800 c 4
 723 800 727 799 732 799 c 4
 735 799 739 799 742 799 c 4
 763 799 781 797 807 794 c 4
 829 791 836 780 836 765 c 4
 836 745 822 720 811 706 c 4
 792 682 775 660 735 613 c 5
 700 565 692 558 655 512 c 4
 617 465 604 444 580 412 c 4
 557 381 553 307 553 231 c 4
 553 189 554 145 554 109 c 4
 554 68 552 35 545 21 c 4
 536 2 520 1 507 1 c 4
 505 1 502 1 500 1 c 4
 488 1 444 0 422 -0 c 4
 416 0 412 0 410 0 c 4
 400 1 379 5 366 34 c 5
 363 71 362 145 362 212 c 4
 362 233 362 253 362 271 c 4
 362 286 363 301 363 316 c 4
 363 352 360 385 341 409 c 4
 315 442 301 454 273 492 c 4
 245 530 201 590 161 637 c 4
 113 695 114 693 91 725 c 4
 84 736 80 747 80 758 c 4
 80 776 91 791 113 797 c 4
 128 798 151 799 173 799 c 4
 181 799 189 799 196 799 c 4
EndSplineSet
Validated: 1
EndChar

StartChar: Z
Encoding: 90 90 24
Width: 941
Flags: HW
LayerCount: 2
Fore
SplineSet
259 800 m 4
 367 800 493 797 588 797 c 4
 604 797 617 797 628 797 c 4
 674 797 694 796 753 796 c 4
 787 795 820 755 820 721 c 4
 820 712 818 704 813 697 c 4
 785 653 727 575 672 501 c 5
 584 393 549 354 470 249 c 4
 458 233 453 218 453 207 c 4
 453 190 464 179 478 179 c 4
 479 179 l 4
 500 178 523 177 546 177 c 4
 613 177 684 181 741 181 c 4
 786 181 822 179 837 171 c 4
 851 164 860 138 861 129 c 4
 861 126 861 117 861 107 c 4
 861 86 861 58 861 49 c 4
 861 38 846 2 792 2 c 4
 789 2 785 2 781 2 c 5
 743 1 701 1 657 1 c 4
 563 1 462 2 375 3 c 4
 276 3 247 2 152 0 c 4
 119 0 102 32 102 55 c 4
 102 59 102 62 103 65 c 4
 108 85 128 107 151 134 c 4
 205 199 247 262 288 312 c 4
 333 367 385 436 432 499 c 4
 450 524 498 570 498 597 c 4
 498 608 490 617 469 619 c 4
 431 621 392 622 353 622 c 4
 307 622 263 621 224 621 c 4
 166 621 121 623 104 631 c 4
 90 638 81 663 80 672 c 4
 80 675 80 684 80 694 c 4
 80 715 80 743 80 752 c 4
 80 763 95 799 149 799 c 4
 152 799 156 799 160 799 c 4
 190 800 223 800 259 800 c 4
EndSplineSet
Validated: 1
EndChar

StartChar: zero
Encoding: 48 48 25
Width: 903
Flags: HW
LayerCount: 2
Fore
SplineSet
600 773 m 4
 748 707 824 545 824 387 c 4
 824 216 735 48 552 10 c 4
 521 3 487 0 452 -0 c 4
 409 0 366 5 329 15 c 4
 262 34 216 68 179 110 c 4
 109 188 80 294 80 397 c 4
 80 494 106 587 149 654 c 4
 222 765 344 801 448 801 c 4
 509 801 563 789 600 773 c 4
532 615 m 4
 513 624 484 631 452 631 c 4
 374 631 278 591 260 446 c 4
 258 434 257 420 257 403 c 4
 257 355 267 293 309 244 c 4
 345 202 400 180 455 180 c 4
 535 180 615 226 640 326 c 4
 646 351 649 376 649 401 c 4
 649 496 604 582 532 615 c 4
EndSplineSet
Validated: 1
EndChar

StartChar: one
Encoding: 49 49 26
Width: 617
Flags: HW
LayerCount: 2
Fore
SplineSet
433 798 m 4
 443 798 456 800 471 800 c 4
 481 800 491 799 501 796 c 4
 515 792 534 771 534 752 c 4
 534 739 534 735 534 726 c 4
 534 721 534 715 534 706 c 4
 535 663 538 606 538 546 c 4
 538 532 537 517 537 502 c 4
 536 459 536 417 536 377 c 4
 536 319 536 263 536 205 c 4
 536 188 536 172 536 155 c 4
 534 127 538 71 525 36 c 4
 518 17 492 3 482 2 c 4
 472 1 423 0 409 0 c 4
 395 0 369 16 361 39 c 4
 355 55 354 63 354 89 c 4
 354 96 354 104 354 114 c 4
 354 119 354 125 354 132 c 4
 354 172 352 232 352 277 c 4
 352 291 353 303 353 313 c 4
 354 337 354 367 354 403 c 4
 354 452 354 514 353 588 c 5
 271 510 272 511 210 508 c 4
 208 508 203 508 196 508 c 4
 170 508 118 509 104 509 c 4
 90 509 80 521 80 534 c 4
 80 538 81 542 83 546 c 4
 90 561 85 558 124 594 c 4
 171 638 194 657 262 714 c 4
 330 771 334 783 377 792 c 4
 403 797 415 798 422 798 c 4
 427 798 430 798 433 798 c 4
EndSplineSet
Validated: 1
EndChar

StartChar: two
Encoding: 50 50 27
Width: 852
Flags: HW
LayerCount: 2
Fore
SplineSet
582 525 m 4
 582 599 508 644 414 644 c 4
 371 644 298 620 263 571 c 4
 243 545 260 569 238 537 c 4
 232 527 210 522 184 522 c 4
 138 522 80 539 80 576 c 4
 80 578 80 579 80 581 c 4
 100 629 101 627 132 671 c 4
 146 690 227 800 405 800 c 4
 616 800 703 683 705 680 c 4
 736 634 748 582 748 534 c 4
 748 486 736 441 721 413 c 4
 700 371 658 341 596 291 c 4
 535 240 514 224 462 188 c 4
 455 183 446 176 449 169 c 4
 451 165 452 163 476 163 c 4
 487 163 502 163 524 164 c 4
 724 162 734 162 750 149 c 4
 757 143 772 130 772 83 c 4
 772 28 762 21 739 5 c 4
 734 1 713 0 682 0 c 4
 622 0 525 5 435 5 c 4
 413 5 313 2 312 2 c 4
 277 2 236 3 205 3 c 4
 192 3 160 3 160 3 c 4
 131 3 104 32 104 51 c 4
 104 86 109 110 136 142 c 4
 193 206 342 282 445 367 c 5
 563 450 582 485 582 525 c 4
EndSplineSet
Validated: 1
EndChar

StartChar: three
Encoding: 51 51 28
Width: 786
Flags: HW
LayerCount: 2
Fore
SplineSet
410 142 m 0
 509 142 566 204 566 256 c 0
 566 265 564 273 560 280 c 0
 548 302 496 305 483 311 c 0
 462 321 437 321 418 337 c 0
 405 351 398 373 398 394 c 0
 398 415 405 435 417 444 c 0
 441 462 464 464 464 464 c 2
 485 473 535 488 546 499 c 0
 556 510 561 523 561 536 c 0
 561 576 519 621 471 640 c 0
 445 650 414 654 388 655 c 1
 386 655 l 2
 360 655 329 639 306 627 c 0
 269 608 249 573 224 529 c 0
 220 518 200 513 177 513 c 0
 135 513 80 531 80 569 c 0
 80 571 80 573 80 575 c 0
 110 658 187 800 371 800 c 2
 390 800 l 1
 552 794 605 762 669 665 c 0
 690 633 699 588 701 522 c 1
 701 518 l 2
 701 480 688 446 668 416 c 0
 662 408 649 403 649 393 c 0
 649 383 664 378 670 370 c 0
 692 341 706 306 706 268 c 2
 706 264 l 1
 704 201 695 158 674 128 c 0
 615 44 563 5 395 0 c 0
 389 0 383 0 377 -0 c 0
 276 0 153 41 85 214 c 0
 85 216 85 218 85 220 c 0
 85 256 140 273 183 273 c 0
 206 273 226 268 230 258 c 0
 250 225 232 249 250 223 c 0
 275 185 334 142 410 142 c 0
EndSplineSet
Validated: 1
EndChar

StartChar: four
Encoding: 52 52 29
Width: 899
Flags: HW
LayerCount: 2
Fore
SplineSet
501 145 m 2
 501 185 496 188 469 188 c 0
 461 188 453 188 445 188 c 0
 382 188 321 186 258 186 c 2
 181 186 l 2
 162 186 143 187 125 193 c 0
 107 199 84 225 83 242 c 0
 82 254 79 275 79 294 c 0
 79 335 102 369 139 405 c 0
 182 447 323 609 400 687 c 0
 477 765 483 785 525 794 c 0
 546 798 561 800 568 800 c 0
 586 800 612 800 632 794 c 0
 646 790 664 769 664 750 c 2
 664 704 l 1
 665 650 666 575 667 500 c 0
 666 453 666 420 666 398 c 0
 666 350 667 348 671 346 c 0
 675 344 684 343 694 343 c 0
 706 343 720 344 734 344 c 0
 753 344 772 342 782 335 c 0
 810 315 819 311 819 272 c 0
 819 264 818 255 818 244 c 1
 811 191 779 188 734 188 c 0
 713 188 699 189 691 189 c 0
 671 189 665 182 665 149 c 0
 665 136 666 120 666 104 c 0
 666 81 664 55 656 33 c 0
 649 14 622 1 613 0 c 1
 605 -0 l 2
 591 0 568 1 557 1 c 2
 556 1 l 2
 507 1 501 49 501 96 c 2
 501 145 l 2
505 455 m 0
 506 485 507 509 507 528 c 0
 507 553 505 568 498 571 c 0
 482 571 302 363 302 347 c 2
 302 346 l 1
 306 338 329 336 361 336 c 0
 374 336 388 337 404 337 c 2
 454 337 l 2
 474 337 486 338 494 346 c 0
 508 359 503 383 505 455 c 0
EndSplineSet
Validated: 1
EndChar

StartChar: five
Encoding: 53 53 30
Width: 838
Flags: HW
LayerCount: 2
Fore
SplineSet
85 711 m 6
 85 775 123 797 134 797 c 4
 146 797 175 798 204 798 c 4
 211 798 218 798 225 798 c 4
 395 799 493 800 567 800 c 4
 600 800 629 800 657 799 c 5
 667 799 l 6
 722 799 737 762 737 751 c 6
 737 690 l 5
 736 676 730 658 713 648 c 4
 688 635 646 640 626 638 c 5
 456 638 l 6
 392 638 328 637 284 635 c 4
 252 631 239 624 239 574 c 4
 239 524 241 512 282 512 c 4
 328 512 373 546 457 546 c 4
 580 546 758 482 758 261 c 6
 758 247 l 5
 755 143 657 6 430 0 c 4
 424 0 418 0 412 -0 c 4
 306 0 158 37 81 222 c 4
 81 224 81 226 81 228 c 4
 81 265 139 282 186 282 c 4
 212 282 234 277 241 267 c 4
 267 228 313 160 412 154 c 5
 422 154 l 6
 452 154 495 161 519 172 c 4
 572 198 600 228 600 280 c 4
 600 295 598 312 593 331 c 4
 576 383 507 402 442 402 c 4
 348 402 350 360 208 360 c 4
 177 360 155 364 139 372 c 4
 114 385 104 388 92 412 c 4
 85 426 85 426 85 691 c 6
 85 711 l 6
EndSplineSet
Validated: 1
EndChar

StartChar: six
Encoding: 54 54 31
Width: 832
Flags: HW
LayerCount: 2
Fore
SplineSet
752 253 m 4
 752 128 652 -1 420 -1 c 4
 291 -1 149 44 102 172 c 4
 84 219 79 296 79 362 c 4
 79 412 82 456 85 474 c 4
 92 536 139 790 425 800 c 4
 428 800 432 800 438 800 c 4
 474 800 553 799 598 776 c 4
 660 746 718 715 747 630 c 4
 747 627 748 625 748 622 c 4
 748 578 690 552 652 552 c 4
 637 552 625 556 621 565 c 4
 601 609 535 651 459 651 c 4
 340 651 305 602 287 576 c 4
 269 549 263 519 253 486 c 5
 317 507 373 525 436 525 c 4
 600 525 752 413 752 253 c 4
421 129 m 4
 531 129 596 195 596 264 c 4
 596 290 582 309 556 339 c 4
 529 368 488 390 427 390 c 4
 381 390 314 381 278 336 c 4
 264 316 250 283 250 252 c 4
 250 190 319 129 421 129 c 4
EndSplineSet
Validated: 1
EndChar

StartChar: nine
Encoding: 57 57 32
Width: 832
Flags: HW
LayerCount: 2
Fore
SplineSet
79 547 m 4
 79 639 139 801 415 801 c 4
 489 801 585 787 657 728 c 4
 732 667 752 604 752 421 c 4
 752 331 741 234 683 145 c 4
 648 91 567 5 408 0 c 5
 395 -0 l 6
 360 0 280 1 234 24 c 4
 172 54 113 85 84 170 c 4
 84 173 83 175 83 178 c 4
 83 222 142 248 180 248 c 4
 195 248 207 244 211 235 c 4
 233 187 302 149 371 149 c 4
 377 149 382 149 388 150 c 4
 491 153 526 198 544 224 c 4
 562 251 569 281 579 314 c 5
 536 300 470 277 423 276 c 5
 407 276 l 6
 192 276 79 413 79 547 c 4
416 670 m 4
 283 670 235 591 235 536 c 4
 235 510 249 491 275 461 c 4
 287 448 323 410 409 410 c 6
 416 410 l 5
 554 412 581 498 581 547 c 4
 581 605 521 670 416 670 c 4
EndSplineSet
Validated: 1
EndChar

StartChar: seven
Encoding: 55 55 33
Width: 808
Flags: HW
LayerCount: 2
Fore
SplineSet
471 617 m 4
 471 625 471 635 398 635 c 4
 340 635 259 629 195 629 c 4
 153 629 119 632 104 639 c 4
 87 649 81 667 80 681 c 5
 80 751 l 6
 80 762 95 799 150 799 c 6
 160 799 l 5
 183 800 205 800 231 800 c 4
 308 800 407 799 591 798 c 5
 626 798 l 6
 638 798 673 797 682 797 c 4
 696 797 729 771 729 726 c 4
 729 697 721 656 705 627 c 4
 682 586 595 487 551 394 c 4
 511 309 491 260 491 177 c 4
 491 169 492 161 492 153 c 4
 490 125 495 71 481 36 c 4
 473 17 443 3 433 2 c 4
 423 1 377 0 361 0 c 4
 360 0 301 1 301 87 c 6
 301 120 l 6
 301 248 342 370 382 448 c 4
 419 520 471 590 471 617 c 4
EndSplineSet
Validated: 1
EndChar

StartChar: period
Encoding: 46 46 34
Width: 327
Flags: HWO
LayerCount: 2
Fore
SplineSet
68 101 m 0
 68 149 107 189 155 189 c 0
 203 189 243 149 243 101 c 0
 243 53 203 14 155 14 c 0
 107 14 68 53 68 101 c 0
EndSplineSet
EndChar

StartChar: comma
Encoding: 44 44 35
Width: 329
Flags: HW
LayerCount: 2
Fore
SplineSet
252 121 m 4
 252 73 169 -181 49 -181 c 4
 48 -181 l 4
 13 -180 0 -170 -0 -150 c 4
 0 -102 77 -4 95 121 c 4
 102 169 130 209 173 209 c 4
 216 209 252 169 252 121 c 4
EndSplineSet
Validated: 1
EndChar

StartChar: acute
Encoding: 180 180 36
Width: 0
Flags: HW
LayerCount: 2
Fore
SplineSet
75 932 m 4
 71 932 65 931 57 931 c 4
 35 931 4 934 0 948 c 4
 0 948 0 949 -0 950 c 4
 0 960 20 979 108 1064 c 4
 146 1100 146 1100 181 1104 c 4
 187 1104 195 1104 203 1104 c 4
 219 1104 236 1104 252 1104 c 4
 282 1104 319 1104 334 1086 c 4
 339 1080 339 1072 324 1057 c 4
 309 1042 292 1019 266 998 c 4
 239 978 218 960 202 950 c 4
 180 936 169 936 130 933 c 4
 115 933 96 932 75 932 c 4
EndSplineSet
Validated: 1
EndChar

StartChar: Aacute
Encoding: 193 193 37
Width: 1048
Flags: HW
LayerCount: 2
Fore
SplineSet
602 932 m 6
 583 932 l 6
 542 932 528 938 528 948 c 4
 528 957 539 970 551 982 c 4
 552 983 655 1087 673 1096 c 4
 685 1103 701 1104 745 1104 c 6
 779 1104 l 6
 806 1104 848 1104 861 1086 c 4
 866 1080 866 1072 851 1057 c 4
 836 1042 819 1019 793 998 c 4
 766 978 745 960 729 950 c 4
 709 937 696 935 657 933 c 4
 642 933 623 932 602 932 c 6
189 3 m 4
 116 3 81 10 81 52 c 4
 81 93 116 168 184 302 c 4
 186 306 329 577 415 721 c 4
 452 783 463 800 530 800 c 4
 602 799 618 775 648 724 c 4
 752 548 943 126 958 83 c 4
 964 64 967 49 967 38 c 4
 967 18 967 0 862 0 c 4
 816 0 779 2 755 58 c 4
 744 84 726 117 714 139 c 4
 691 183 692 183 631 185 c 4
 610 186 578 186 541 186 c 6
 428 186 l 6
 398 186 372 186 363 182 c 4
 354 179 351 171 339 146 c 4
 327 122 306 79 293 53 c 4
 276 22 268 4 232 4 c 4
 231 4 230 4 229 4 c 4
 217 3 203 3 189 3 c 4
622 360 m 4
 622 400 554 535 540 548 c 4
 534 554 532 554 522 546 c 4
 500 529 433 405 430 376 c 4
 430 373 429 370 429 368 c 4
 429 348 445 344 540 343 c 4
 609 343 622 343 622 360 c 4
EndSplineSet
Validated: 1
EndChar

StartChar: Q
Encoding: 81 81 39
Width: 928
Flags: HW
LayerCount: 2
Fore
SplineSet
660 52 m 5
 599 18 529 0 459 -0 c 4
 439 0 419 1 400 4 c 5
 300 9 205 64 151 148 c 5
 103 215 80 305 80 396 c 4
 80 508 116 622 185 698 c 4
 254 774 358 800 458 800 c 4
 475 800 493 799 510 798 c 4
 713 771 826 578 826 387 c 4
 826 327 815 268 792 214 c 4
 788 204 788 203 795 196 c 4
 816 174 848 152 848 119 c 4
 848 118 848 117 848 116 c 4
 848 115 848 115 848 114 c 4
 848 73 809 51 785 22 c 4
 773 9 756 3 739 3 c 4
 718 3 697 12 683 28 c 4
 676 36 668 44 660 52 c 5
645 400 m 4
 645 511 582 626 454 626 c 4
 385 626 316 591 288 525 c 4
 272 485 264 443 264 403 c 4
 264 289 329 188 452 188 c 4
 471 188 491 190 512 195 c 4
 512 196 512 197 512 198 c 4
 477 227 433 265 433 307 c 4
 433 324 441 342 459 360 c 5
 494 400 521 418 547 418 c 4
 577 418 605 394 641 349 c 5
 644 365 645 383 645 400 c 4
EndSplineSet
Validated: 1
EndChar

StartChar: Eacute
Encoding: 201 201 40
Width: 732
Flags: HW
LayerCount: 2
Fore
SplineSet
325 932 m 6
 306 932 l 6
 265 932 251 938 251 948 c 4
 251 957 262 970 274 982 c 4
 275 983 377 1087 395 1096 c 4
 407 1103 424 1104 468 1104 c 6
 502 1104 l 6
 529 1104 571 1104 584 1086 c 4
 589 1080 589 1072 574 1057 c 4
 559 1042 542 1019 516 998 c 4
 489 978 468 960 452 950 c 4
 432 937 419 935 380 933 c 4
 365 933 346 932 325 932 c 6
454 149 m 6
 627 149 649 149 649 75 c 4
 649 66 649 56 647 47 c 4
 644 31 619 6 583 2 c 4
 568 0 522 -1 467 -1 c 4
 365 -1 231 2 188 6 c 4
 128 10 96 41 85 95 c 4
 81 125 81 167 81 220 c 4
 81 331 81 442 81 553 c 4
 81 587 80 618 80 645 c 4
 80 680 81 708 86 729 c 4
 101 790 168 792 223 799 c 5
 242 799 248 800 261 800 c 4
 268 800 276 800 289 799 c 5
 383 799 l 6
 468 799 563 799 574 798 c 4
 589 797 637 785 646 767 c 4
 650 758 652 740 652 723 c 4
 652 690 652 662 585 651 c 4
 564 647 486 647 424 647 c 6
 342 647 l 5
 298 645 289 642 268 619 c 4
 262 612 260 602 260 582 c 4
 260 569 260 553 262 531 c 4
 266 475 266 475 341 475 c 4
 350 475 402 476 446 476 c 4
 515 476 548 476 555 442 c 4
 558 425 560 409 560 393 c 4
 560 331 541 327 464 327 c 4
 432 327 395 328 362 328 c 4
 316 328 278 326 271 314 c 4
 265 305 262 280 262 252 c 4
 262 224 265 193 273 170 c 4
 278 164 285 151 310 149 c 5
 454 149 l 6
EndSplineSet
Validated: 1
EndChar

StartChar: Iacute
Encoding: 205 205 41
Width: 360
Flags: HW
LayerCount: 2
Fore
SplineSet
332 1104 m 6
 355 1104 417 1104 417 1078 c 4
 417 1065 359 1008 346 998 c 4
 319 978 298 960 282 950 c 4
 262 937 249 935 210 933 c 4
 195 933 176 932 155 932 c 6
 136 932 l 6
 95 932 81 938 81 948 c 4
 81 957 92 970 104 982 c 4
 105 983 207 1087 225 1096 c 4
 237 1103 254 1104 298 1104 c 6
 332 1104 l 6
206 799 m 5
 273 791 276 756 277 709 c 4
 278 672 280 626 280 577 c 4
 280 554 279 529 278 505 c 4
 277 476 276 447 276 416 c 4
 276 327 280 234 280 160 c 4
 280 103 278 57 269 36 c 4
 261 17 231 3 221 2 c 4
 211 1 157 0 141 -0 c 4
 125 0 98 16 89 39 c 4
 83 55 81 63 81 90 c 6
 81 132 l 6
 81 172 79 231 79 277 c 4
 79 291 80 304 80 314 c 4
 81 342 82 376 82 413 c 4
 82 489 80 575 80 643 c 4
 80 705 82 751 88 760 c 4
 111 792 120 800 171 800 c 4
 181 800 192 799 206 799 c 5
EndSplineSet
Validated: 1
EndChar

StartChar: Lacute
Encoding: 197 313 42
Width: 807
Flags: HW
LayerCount: 2
Fore
SplineSet
375 932 m 6
 356 932 l 6
 315 932 301 938 301 948 c 4
 301 957 312 970 324 982 c 4
 325 983 427 1087 445 1096 c 4
 457 1103 474 1104 518 1104 c 6
 552 1104 l 6
 579 1104 621 1104 634 1086 c 4
 639 1080 639 1072 624 1057 c 4
 609 1042 592 1019 566 998 c 4
 539 978 518 960 502 950 c 4
 482 937 469 935 430 933 c 4
 415 933 396 932 375 932 c 6
79 84 m 4
 79 85 82 123 82 172 c 4
 82 214 81 257 81 292 c 6
 81 317 l 5
 82 346 83 380 83 417 c 4
 83 493 81 579 81 647 c 4
 81 709 83 755 89 764 c 4
 112 798 112 797 174 799 c 5
 181 799 l 6
 200 799 254 798 269 779 c 4
 277 769 281 745 281 700 c 4
 281 655 281 573 282 498 c 4
 282 428 281 359 281 308 c 4
 281 206 283 187 323 182 c 4
 362 180 403 179 443 179 c 4
 491 179 537 180 578 180 c 4
 639 180 686 178 703 170 c 4
 717 163 726 137 727 128 c 5
 727 48 l 6
 727 47 722 1 657 1 c 6
 647 1 l 5
 615 0 579 0 541 -0 c 4
 434 0 310 2 217 3 c 4
 210 3 203 3 196 3 c 4
 169 3 143 4 131 4 c 4
 119 4 79 27 79 84 c 4
EndSplineSet
Validated: 1
EndChar

StartChar: Oacute
Encoding: 211 211 43
Width: 903
Flags: HW
LayerCount: 2
Fore
SplineSet
475 932 m 6
 456 932 l 6
 415 932 401 938 401 948 c 4
 401 957 412 970 424 982 c 4
 425 983 527 1087 545 1096 c 4
 557 1103 574 1104 618 1104 c 6
 652 1104 l 6
 679 1104 721 1104 734 1086 c 4
 739 1080 739 1072 724 1057 c 4
 709 1042 692 1019 666 998 c 4
 639 978 618 960 602 950 c 4
 582 937 569 935 530 933 c 4
 515 933 496 932 475 932 c 6
824 387 m 4
 824 250 758 0 452 -0 c 4
 303 0 228 54 179 110 c 4
 109 188 80 294 80 397 c 4
 80 494 106 587 149 654 c 4
 222 765 344 801 448 801 c 4
 509 801 563 789 600 773 c 4
 748 707 824 545 824 387 c 4
455 180 m 4
 473 180 649 185 649 401 c 4
 649 496 604 582 532 615 c 4
 513 624 484 631 452 631 c 4
 374 631 278 591 260 446 c 4
 258 434 257 420 257 403 c 4
 257 250 355 180 455 180 c 4
EndSplineSet
Validated: 1
EndChar

StartChar: Racute
Encoding: 192 340 44
Width: 769
Flags: HW
LayerCount: 2
Fore
SplineSet
375 932 m 4
 368 932 362 932 356 932 c 4
 315 932 301 938 301 948 c 4
 301 957 312 970 324 982 c 4
 325 983 427 1087 445 1096 c 4
 457 1103 474 1104 518 1104 c 4
 528 1104 539 1104 552 1104 c 4
 579 1104 621 1104 634 1086 c 4
 639 1080 639 1072 624 1057 c 4
 609 1042 592 1019 566 998 c 4
 539 978 518 960 502 950 c 4
 482 937 469 935 430 933 c 4
 415 933 396 932 375 932 c 4
265 274 m 5
 265 270 264 263 264 254 c 4
 264 245 265 234 265 222 c 4
 265 212 265 203 265 195 c 4
 265 187 265 179 266 171 c 6
 266 171 268 148 268 120 c 4
 268 33 251 11 219 4 c 4
 205 1 190 3 167 1 c 5
 107 5 96 7 85 62 c 4
 80 104 80 192 80 277 c 6
 80 543 l 6
 80 581 79 614 79 643 c 4
 79 675 80 701 85 721 c 4
 104 799 208 800 364 800 c 4
 417 799 468 798 510 787 c 5
 510 784 l 5
 596 761 669 683 669 575 c 4
 669 542 662 506 646 467 c 4
 630 428 614 397 572 370 c 4
 521 338 510 333 446 324 c 5
 458 311 469 299 481 286 c 4
 536 218 600 156 658 89 c 5
 672 68 689 48 689 31 c 4
 689 20 682 10 662 0 c 5
 651 0 577 2 560 2 c 4
 543 2 513 13 490 34 c 4
 413 118 339 194 265 274 c 5
307 653 m 5
 282 652 279 651 274 644 c 4
 266 634 261 591 261 550 c 4
 261 514 265 480 274 472 c 4
 281 466 291 465 342 465 c 4
 375 465 411 466 423 469 c 4
 465 478 487 516 487 555 c 4
 487 594 465 635 419 648 c 4
 407 652 378 653 340 653 c 6
 307 653 l 5
EndSplineSet
Validated: 1
EndChar

StartChar: Uacute
Encoding: 218 218 45
Width: 912
Flags: HW
LayerCount: 2
Fore
SplineSet
425 932 m 6
 406 932 l 6
 365 932 351 938 351 948 c 4
 351 957 362 970 374 982 c 4
 375 983 477 1087 495 1096 c 4
 507 1103 524 1104 568 1104 c 6
 602 1104 l 6
 629 1104 671 1104 684 1086 c 4
 689 1080 689 1072 674 1057 c 4
 659 1042 642 1019 616 998 c 4
 589 978 568 960 552 950 c 4
 532 937 519 935 480 933 c 4
 465 933 446 932 425 932 c 6
188 800 m 6
 262 800 276 775 277 706 c 4
 279 597 278 495 283 377 c 4
 288 309 296 260 333 219 c 4
 368 180 397 165 439 165 c 6
 447 165 l 5
 493 167 545 169 580 211 c 4
 615 253 634 283 639 364 c 5
 639 409 637 515 637 606 c 4
 637 684 638 752 644 760 c 4
 666 793 670 798 728 799 c 5
 739 799 l 6
 822 799 830 768 831 708 c 4
 832 664 832 625 832 587 c 4
 832 505 830 429 827 323 c 5
 827 319 l 6
 827 229 763 138 723 97 c 4
 645 18 544 -1 464 -1 c 4
 400 -1 350 11 337 15 c 4
 207 51 130 163 104 262 c 4
 80 348 80 666 80 670 c 4
 80 718 82 751 87 759 c 4
 108 791 112 798 175 800 c 5
 188 800 l 6
EndSplineSet
Validated: 1
EndChar

StartChar: Yacute
Encoding: 221 221 46
Width: 916
Flags: HW
LayerCount: 2
Fore
SplineSet
425 932 m 4
 418 932 412 932 406 932 c 4
 365 932 351 938 351 948 c 4
 351 957 362 970 374 982 c 4
 375 983 477 1087 495 1096 c 4
 507 1103 524 1104 568 1104 c 4
 578 1104 589 1104 602 1104 c 4
 629 1104 671 1104 684 1086 c 4
 689 1080 689 1072 674 1057 c 4
 659 1042 642 1019 616 998 c 4
 589 978 568 960 552 950 c 4
 532 937 519 935 480 933 c 4
 465 933 446 932 425 932 c 4
362 212 m 4
 362 260 363 315 363 316 c 4
 363 352 360 385 341 409 c 4
 315 442 301 454 273 492 c 4
 245 530 201 590 161 637 c 4
 88 725 80 735 80 758 c 4
 80 776 91 791 113 797 c 4
 128 798 151 799 173 799 c 4
 216 799 236 798 259 770 c 4
 274 752 273 749 303 713 c 4
 332 679 401 599 417 576 c 4
 435 550 437 548 460 524 c 5
 495 567 512 592 531 615 c 4
 641 746 641 745 657 768 c 4
 670 786 686 800 719 800 c 4
 723 800 727 799 732 799 c 4
 735 799 739 799 742 799 c 4
 763 799 781 797 807 794 c 4
 829 791 836 780 836 765 c 4
 836 739 826 719 735 613 c 5
 700 565 692 558 655 512 c 4
 617 465 604 444 580 412 c 4
 557 381 553 307 553 231 c 4
 553 189 554 145 554 109 c 4
 554 23 547 1 507 1 c 4
 505 1 502 1 500 1 c 4
 488 1 444 0 422 -0 c 4
 407 0 381 0 366 34 c 5
 363 71 362 145 362 212 c 4
EndSplineSet
Validated: 1
EndChar

StartChar: caron
Encoding: 183 711 47
Width: 0
Flags: HW
LayerCount: 2
Fore
SplineSet
85 1095 m 4
 186 1095 186 1095 222 1061 c 5
 258 1095 258 1094 291 1097 c 4
 310 1098 338 1098 362 1098 c 4
 385 1098 430 1098 443 1079 c 4
 445 1076 447 1074 447 1071 c 4
 447 1062 433 1047 377 998 c 4
 302 931 293 924 270 924 c 6
 262 924 l 6
 241 924 222 923 207 923 c 4
 200 924 188 924 179 924 c 4
 159 924 140 924 13 1048 c 4
 -2 1063 -2 1070 3 1076 c 4
 16 1095 63 1095 85 1095 c 4
EndSplineSet
Validated: 1
EndChar

StartChar: Ccaron
Encoding: 200 268 48
Width: 878
Flags: HW
LayerCount: 2
Fore
SplineSet
305 1095 m 4
 406 1095 406 1095 442 1061 c 5
 478 1093 478 1093 511 1097 c 4
 530 1098 558 1098 582 1098 c 4
 640 1098 655 1089 663 1079 c 4
 665 1077 666 1075 666 1072 c 4
 666 1053 550 957 549 956 c 4
 520 934 518 924 487 924 c 6
 482 924 l 6
 461 924 442 923 427 923 c 4
 420 924 408 924 399 924 c 4
 375 924 373 927 336 955 c 4
 296 986 267 1014 233 1048 c 4
 218 1063 218 1070 223 1076 c 4
 239 1095 272 1095 305 1095 c 4
452 632 m 4
 422 632 257 622 257 404 c 4
 257 313 295 219 388 190 c 4
 415 182 455 173 489 173 c 4
 515 173 585 187 615 218 c 4
 626 230 648 279 673 286 c 4
 688 290 705 292 721 292 c 4
 761 292 798 280 798 253 c 6
 798 249 l 6
 798 185 754 135 714 94 c 4
 643 21 540 0 453 -0 c 4
 293 0 219 63 178 110 c 4
 149 143 80 223 80 397 c 4
 80 538 131 695 274 764 c 4
 325 788 384 798 440 800 c 5
 456 800 l 6
 563 800 712 761 789 564 c 4
 789 562 789 560 789 558 c 4
 789 518 726 499 678 499 c 4
 652 499 631 504 626 515 c 4
 609 553 624 524 604 553 c 4
 566 608 508 632 452 632 c 4
EndSplineSet
Validated: 1
EndChar

StartChar: Ecaron
Encoding: 204 282 49
Width: 732
Flags: HW
LayerCount: 2
Fore
SplineSet
235 1095 m 0
 336 1095 336 1095 372 1061 c 1
 408 1095 408 1094 441 1097 c 0
 460 1098 488 1098 512 1098 c 0
 535 1098 580 1098 593 1079 c 0
 595 1076 597 1074 597 1071 c 0
 597 1062 583 1047 527 998 c 0
 452 931 443 924 420 924 c 2
 412 924 l 2
 391 924 372 923 357 923 c 0
 350 924 338 924 329 924 c 0
 309 924 290 924 163 1048 c 0
 148 1063 148 1070 153 1076 c 0
 166 1095 213 1095 235 1095 c 0
454 149 m 6
 627 149 649 149 649 75 c 4
 649 66 649 56 647 47 c 4
 644 31 619 6 583 2 c 4
 568 0 522 -1 467 -1 c 4
 365 -1 231 2 188 6 c 4
 128 10 96 41 85 95 c 4
 81 125 81 167 81 220 c 4
 81 331 81 442 81 553 c 4
 81 587 80 618 80 645 c 4
 80 680 81 708 86 729 c 4
 101 790 168 792 223 799 c 5
 242 799 248 800 261 800 c 4
 268 800 276 800 289 799 c 5
 383 799 l 6
 468 799 563 799 574 798 c 4
 589 797 637 785 646 767 c 4
 650 758 652 740 652 723 c 4
 652 690 652 662 585 651 c 4
 564 647 486 647 424 647 c 6
 342 647 l 5
 298 645 289 642 268 619 c 4
 262 612 260 602 260 582 c 4
 260 569 260 553 262 531 c 4
 266 475 266 475 341 475 c 4
 350 475 402 476 446 476 c 4
 515 476 548 476 555 442 c 4
 558 425 560 409 560 393 c 4
 560 331 541 327 464 327 c 4
 432 327 395 328 362 328 c 4
 316 328 278 326 271 314 c 4
 265 305 262 280 262 252 c 4
 262 224 265 193 273 170 c 4
 278 164 285 151 310 149 c 5
 454 149 l 6
EndSplineSet
Validated: 1
EndChar

StartChar: Lcaron
Encoding: 165 317 50
Width: 807
Flags: HW
LayerCount: 2
Fore
SplineSet
285 1095 m 4
 386 1095 386 1095 422 1061 c 5
 458 1093 458 1093 491 1097 c 4
 510 1098 538 1098 562 1098 c 4
 620 1098 635 1089 643 1079 c 4
 645 1077 646 1075 646 1072 c 4
 646 1053 530 957 529 956 c 4
 500 934 498 924 467 924 c 6
 462 924 l 6
 441 924 422 923 407 923 c 4
 400 924 388 924 379 924 c 4
 355 924 353 927 316 955 c 4
 276 986 247 1014 213 1048 c 4
 198 1063 198 1070 203 1076 c 4
 219 1095 252 1095 285 1095 c 4
79 84 m 4
 79 85 82 123 82 172 c 4
 82 214 81 257 81 292 c 6
 81 317 l 5
 83 345 83 375 83 407 c 4
 83 439 82 472 82 504 c 4
 82 542 81 595 81 644 c 4
 81 703 82 754 89 764 c 4
 101 782 107 798 142 799 c 5
 174 799 l 6
 195 799 253 799 269 779 c 4
 277 769 281 745 281 700 c 4
 281 655 281 573 282 498 c 4
 282 428 281 359 281 308 c 4
 281 206 283 187 323 182 c 4
 360 180 400 179 439 179 c 4
 492 179 543 180 587 180 c 4
 643 180 687 178 703 170 c 4
 717 163 726 137 727 128 c 5
 727 48 l 6
 727 47 723 1 655 1 c 6
 647 1 l 5
 615 0 579 0 541 -0 c 4
 434 0 310 2 217 3 c 4
 210 3 203 3 196 3 c 4
 169 3 143 4 131 4 c 4
 119 4 79 27 79 84 c 4
EndSplineSet
Validated: 1
EndChar

StartChar: Ncaron
Encoding: 210 327 51
Width: 965
Flags: HW
LayerCount: 2
Fore
SplineSet
335 1095 m 4
 436 1095 436 1095 472 1061 c 5
 508 1095 508 1094 541 1097 c 4
 560 1098 588 1098 612 1098 c 4
 635 1098 680 1098 693 1079 c 4
 695 1076 697 1074 697 1071 c 4
 697 1062 683 1047 627 998 c 4
 552 931 543 924 520 924 c 6
 512 924 l 6
 491 924 472 923 457 923 c 4
 450 924 438 924 429 924 c 4
 409 924 390 924 263 1048 c 4
 248 1063 248 1070 253 1076 c 4
 266 1095 313 1095 335 1095 c 4
694 629 m 4
 694 772 694 800 776 800 c 4
 872 800 874 773 879 717 c 4
 883 671 884 589 884 496 c 4
 884 436 885 383 885 338 c 4
 885 73 876 52 848 27 c 4
 831 14 807 9 784 9 c 4
 749 9 716 19 715 19 c 4
 691 27 674 50 651 68 c 4
 628 87 600 116 551 167 c 4
 474 250 396 345 331 417 c 4
 307 443 292 456 282 456 c 4
 269 456 266 435 266 399 c 4
 266 387 267 373 267 358 c 4
 269 236 270 160 270 112 c 4
 270 32 267 29 256 18 c 4
 246 8 238 0 184 -0 c 4
 152 0 114 5 100 23 c 4
 83 46 82 88 80 265 c 4
 79 318 79 372 79 423 c 4
 79 566 82 692 89 738 c 4
 95 772 101 793 157 795 c 5
 168 795 l 6
 240 795 266 767 287 745 c 4
 352 676 600 351 666 300 c 5
 674 296 680 294 684 294 c 4
 700 294 697 319 699 345 c 4
 699 348 699 351 699 354 c 4
 699 406 694 529 694 629 c 4
EndSplineSet
Validated: 1
EndChar

StartChar: Scaron
Encoding: 169 352 52
Width: 860
Flags: HW
LayerCount: 2
Fore
SplineSet
305 1095 m 4
 406 1095 406 1095 442 1061 c 5
 478 1095 478 1094 511 1097 c 4
 530 1098 558 1098 582 1098 c 4
 605 1098 650 1098 663 1079 c 4
 665 1076 667 1074 667 1071 c 4
 667 1062 653 1047 597 998 c 4
 522 931 513 924 490 924 c 6
 482 924 l 6
 461 924 442 923 427 923 c 4
 420 924 408 924 399 924 c 4
 379 924 360 924 233 1048 c 4
 218 1063 218 1070 223 1076 c 4
 236 1095 283 1095 305 1095 c 4
728 679 m 4
 759 638 760 638 780 593 c 4
 780 591 780 589 780 587 c 4
 780 552 723 537 676 537 c 4
 650 537 628 542 621 551 c 4
 591 593 576 613 524 634 c 4
 498 644 471 653 444 653 c 6
 440 653 l 5
 414 652 327 646 289 591 c 4
 282 582 276 565 276 548 c 4
 276 535 280 522 291 513 c 4
 316 493 370 471 443 471 c 6
 445 471 l 6
 566 471 776 397 776 261 c 6
 776 256 l 5
 774 195 764 153 740 124 c 4
 677 46 623 5 428 0 c 4
 422 0 416 0 410 -0 c 4
 361 0 315 7 270 24 c 4
 220 44 168 74 133 121 c 4
 102 162 101 162 81 207 c 5
 81 212 l 6
 81 247 141 264 189 264 c 4
 215 264 238 259 243 249 c 5
 265 217 245 241 265 216 c 4
 279 199 318 148 415 148 c 4
 417 148 419 148 421 148 c 4
 450 149 490 149 519 158 c 4
 548 167 576 173 597 196 c 4
 613 213 620 228 620 242 c 4
 620 296 510 323 412 327 c 4
 321 331 248 356 191 384 c 4
 157 401 94 446 94 556 c 4
 94 617 120 647 150 687 c 4
 201 756 321 800 443 800 c 4
 553 800 664 764 728 679 c 4
EndSplineSet
Validated: 1
EndChar

StartChar: Tcaron
Encoding: 171 356 53
Width: 951
Flags: HW
LayerCount: 2
Fore
SplineSet
335 1095 m 0
 436 1095 436 1095 472 1061 c 1
 508 1095 508 1094 541 1097 c 0
 560 1098 588 1098 612 1098 c 0
 635 1098 680 1098 693 1079 c 0
 695 1076 697 1074 697 1071 c 0
 697 1062 683 1047 627 998 c 0
 552 931 543 924 520 924 c 0
 518 924 515 924 512 924 c 0
 491 924 472 923 457 923 c 0
 450 924 438 924 429 924 c 0
 409 924 390 924 263 1048 c 0
 248 1063 248 1070 253 1076 c 0
 266 1095 313 1095 335 1095 c 0
370 545 m 0
 368 608 318 608 235 608 c 0
 221 608 209 608 197 608 c 0
 165 608 140 609 128 614 c 0
 88 631 80 650 80 700 c 0
 80 712 80 726 81 743 c 0
 83 765 106 793 126 795 c 0
 139 797 144 797 148 797 c 0
 150 797 152 797 154 797 c 0
 157 797 162 797 171 798 c 0
 208 799 257 799 308 799 c 0
 329 799 351 799 373 799 c 1
 404 798 437 797 470 797 c 0
 555 797 644 800 714 800 c 0
 771 800 816 798 837 790 c 0
 856 782 869 753 870 743 c 0
 871 733 871 669 871 654 c 0
 871 639 852 619 829 610 c 1
 771 609 737 606 698 606 c 0
 668 606 636 608 635 608 c 0
 605 608 566 587 566 552 c 0
 566 550 566 549 566 547 c 0
 566 501 564 397 564 296 c 0
 564 245 565 195 566 153 c 0
 564 125 569 68 555 33 c 0
 547 14 517 2 507 1 c 0
 497 0 432 0 417 0 c 0
 402 0 385 15 376 38 c 0
 368 58 366 126 366 188 c 0
 366 250 368 307 368 309 c 0
 369 336 370 363 370 389 c 0
 370 424 369 458 369 490 c 0
 369 509 369 528 370 545 c 0
EndSplineSet
Validated: 1
EndChar

StartChar: Zcaron
Encoding: 174 381 54
Width: 941
Flags: HW
LayerCount: 2
Fore
SplineSet
335 1095 m 4
 436 1095 436 1095 472 1061 c 5
 508 1095 508 1094 541 1097 c 4
 560 1098 588 1098 612 1098 c 4
 635 1098 680 1098 693 1079 c 4
 695 1076 697 1074 697 1071 c 4
 697 1062 683 1047 627 998 c 4
 552 931 543 924 520 924 c 4
 518 924 515 924 512 924 c 4
 491 924 472 923 457 923 c 4
 450 924 438 924 429 924 c 4
 409 924 390 924 263 1048 c 4
 248 1063 248 1070 253 1076 c 4
 266 1095 313 1095 335 1095 c 4
259 800 m 4
 367 800 493 797 588 797 c 4
 604 797 617 797 628 797 c 4
 674 797 694 796 753 796 c 4
 787 795 820 755 820 721 c 4
 820 712 818 704 813 697 c 4
 785 653 727 575 672 501 c 5
 453 232 453 232 453 207 c 4
 453 190 464 179 478 179 c 4
 479 179 l 4
 500 178 523 177 546 177 c 4
 613 177 684 181 741 181 c 4
 786 181 822 179 837 171 c 4
 848 165 861 149 861 107 c 4
 861 86 861 58 861 49 c 4
 861 38 846 2 792 2 c 4
 789 2 785 2 781 2 c 4
 743 1 701 1 657 1 c 4
 563 1 462 2 375 3 c 4
 276 3 247 2 152 0 c 4
 119 0 102 32 102 55 c 4
 102 76 116 93 151 134 c 4
 205 199 247 262 288 312 c 4
 333 367 385 436 432 499 c 4
 450 524 498 570 498 597 c 4
 498 608 490 617 469 619 c 4
 431 621 392 622 353 622 c 4
 307 622 263 621 224 621 c 4
 166 621 121 623 104 631 c 4
 86 640 80 665 80 694 c 4
 80 715 80 743 80 752 c 4
 80 763 95 799 149 799 c 4
 152 799 156 799 160 799 c 4
 190 800 223 800 259 800 c 4
EndSplineSet
Validated: 1
EndChar

StartChar: Adieresis
Encoding: 196 196 55
Width: 1048
Flags: HW
LayerCount: 2
Fore
SplineSet
590 1021 m 4
 590 1069 629 1109 677 1109 c 4
 725 1109 765 1069 765 1021 c 4
 765 973 725 934 677 934 c 4
 629 934 590 973 590 1021 c 4
290 1021 m 4
 290 1069 329 1109 377 1109 c 4
 425 1109 465 1069 465 1021 c 4
 465 973 425 934 377 934 c 4
 329 934 290 973 290 1021 c 4
189 3 m 4
 108 3 81 14 81 52 c 4
 81 93 116 168 184 302 c 4
 186 306 329 577 415 721 c 4
 452 783 463 800 530 800 c 4
 602 799 618 775 648 724 c 4
 752 548 943 126 958 83 c 4
 964 64 967 49 967 38 c 4
 967 17 967 0 862 0 c 4
 816 0 779 1 755 58 c 4
 744 84 726 117 714 139 c 4
 691 183 692 183 631 185 c 4
 610 186 578 186 541 186 c 4
 516 186 487 186 462 186 c 4
 449 186 438 186 428 186 c 4
 398 186 372 186 363 182 c 4
 354 179 351 171 339 146 c 4
 327 122 306 79 293 53 c 4
 276 22 268 4 232 4 c 4
 231 4 230 4 229 4 c 4
 217 3 203 3 189 3 c 4
622 360 m 4
 622 399 555 534 540 548 c 4
 534 554 532 554 522 546 c 4
 503 531 429 405 429 368 c 4
 429 348 445 344 540 343 c 4
 609 343 622 343 622 360 c 4
EndSplineSet
Validated: 1
EndChar

StartChar: Dcaron
Encoding: 207 270 56
Width: 824
Flags: HW
LayerCount: 2
Fore
SplineSet
265 1095 m 4
 366 1095 366 1095 402 1061 c 5
 438 1095 438 1094 471 1097 c 4
 490 1098 518 1098 542 1098 c 4
 565 1098 610 1098 623 1079 c 4
 625 1076 627 1074 627 1071 c 4
 627 1062 613 1047 557 998 c 4
 482 931 473 924 450 924 c 4
 448 924 445 924 442 924 c 4
 421 924 402 923 387 923 c 4
 380 924 368 924 359 924 c 4
 339 924 320 924 193 1048 c 4
 178 1063 178 1070 183 1076 c 4
 196 1095 243 1095 265 1095 c 4
82 105 m 4
 82 111 84 164 84 274 c 4
 84 379 82 497 80 646 c 4
 80 702 87 711 88 722 c 4
 90 748 141 796 190 800 c 5
 261 794 289 795 368 794 c 4
 374 794 380 794 386 794 c 4
 621 794 745 589 745 389 c 4
 745 222 659 58 479 20 c 4
 404 4 340 3 269 3 c 4
 254 3 239 3 223 3 c 4
 214 2 174 0 161 0 c 4
 160 0 159 0 158 -0 c 4
 136 0 82 23 82 105 c 4
288 171 m 4
 288 171 297 171 303 171 c 4
 310 171 316 171 322 171 c 4
 328 171 333 171 340 172 c 4
 412 181 466 188 517 241 c 4
 555 282 574 343 574 404 c 4
 574 516 510 629 382 629 c 4
 381 629 299 627 293 627 c 4
 271 626 255 602 254 586 c 4
 253 570 253 555 253 541 c 4
 253 527 253 514 253 503 c 4
 252 480 252 456 252 432 c 4
 252 357 255 276 256 209 c 4
 258 185 265 171 288 171 c 4
EndSplineSet
Validated: 1
EndChar

StartChar: Ocircumflex
Encoding: 212 212 57
Width: 903
Flags: HW
LayerCount: 2
Fore
SplineSet
592 923 m 4
 568 923 540 923 521 924 c 4
 488 927 488 927 452 961 c 5
 436 946 429 938 422 935 c 4
 407 926 386 926 315 926 c 4
 293 926 246 926 233 945 c 4
 228 951 228 959 243 974 c 4
 285 1015 318 1045 346 1066 c 4
 383 1094 385 1098 409 1098 c 4
 418 1098 430 1097 437 1098 c 5
 492 1098 l 6
 495 1098 498 1098 500 1098 c 4
 523 1098 532 1091 607 1024 c 4
 663 975 677 959 677 950 c 4
 677 947 675 945 673 942 c 4
 660 923 615 923 592 923 c 4
600 773 m 4
 748 707 824 545 824 387 c 4
 824 216 735 48 552 10 c 4
 521 3 487 0 452 -0 c 4
 300 0 226 56 179 110 c 4
 109 188 80 294 80 397 c 4
 80 494 106 587 149 654 c 4
 222 765 344 801 448 801 c 4
 509 801 563 789 600 773 c 4
649 401 m 4
 649 494 600 631 452 631 c 4
 416 631 257 619 257 403 c 4
 257 252 353 180 455 180 c 4
 563 180 649 260 649 401 c 4
EndSplineSet
Validated: 1
EndChar

StartChar: eight
Encoding: 56 56 58
Width: 800
Flags: HW
LayerCount: 2
Fore
SplineSet
608 413 m 4
 608 395 720 368 720 215 c 4
 720 145 694 71 636 36 c 4
 585 6 516 2 466 2 c 6
 415 2 l 6
 405 2 400 2 400 0 c 5
 302 6 171 -11 113 88 c 4
 91 127 80 172 80 217 c 4
 80 369 192 392 192 416 c 4
 192 420 189 423 182 427 c 5
 134 464 111 521 111 579 c 4
 111 702 206 789 327 798 c 4
 352 799 378 800 404 800 c 4
 501 800 599 785 656 695 c 4
 677 660 689 619 689 578 c 4
 689 465 608 428 608 413 c 4
398 148 m 5
 411 148 l 6
 466 148 528 156 546 216 c 4
 549 224 551 232 551 240 c 4
 551 281 508 316 468 320 c 4
 444 322 415 325 386 325 c 4
 328 325 270 313 251 254 c 4
 250 249 250 245 250 240 c 4
 250 206 274 171 306 160 c 4
 334 148 369 149 398 148 c 5
389 650 m 6
 358 650 297 633 297 560 c 4
 297 526 313 491 348 481 c 5
 348 481 374 475 404 475 c 4
 429 475 503 477 503 561 c 4
 503 605 476 650 406 650 c 6
 389 650 l 6
EndSplineSet
Validated: 1
EndChar

StartChar: Rcaron
Encoding: 216 344 59
Width: 769
Flags: HW
LayerCount: 2
Fore
SplineSet
225 1095 m 4
 326 1095 326 1095 362 1061 c 5
 398 1095 398 1094 431 1097 c 4
 450 1098 478 1098 502 1098 c 4
 525 1098 570 1098 583 1079 c 4
 585 1076 587 1074 587 1071 c 4
 587 1062 573 1047 517 998 c 4
 442 931 433 924 410 924 c 6
 402 924 l 6
 381 924 362 923 347 923 c 4
 340 924 328 924 319 924 c 4
 299 924 280 924 153 1048 c 4
 138 1063 138 1070 143 1076 c 4
 156 1095 203 1095 225 1095 c 4
265 274 m 5
 265 270 264 263 264 254 c 4
 264 245 265 234 265 222 c 6
 265 195 l 6
 265 187 265 179 266 171 c 6
 266 171 268 148 268 120 c 4
 268 17 240 9 219 4 c 4
 205 1 190 3 167 1 c 5
 107 5 96 7 85 62 c 4
 80 104 80 192 80 277 c 6
 80 543 l 6
 80 581 79 614 79 643 c 4
 79 675 80 701 85 721 c 4
 104 799 208 800 364 800 c 4
 417 799 468 798 510 787 c 5
 510 784 l 5
 596 761 669 683 669 575 c 4
 669 542 662 506 646 467 c 4
 630 428 614 397 572 370 c 4
 521 338 510 333 446 324 c 5
 458 311 469 299 481 286 c 4
 536 218 600 156 658 89 c 5
 672 68 689 48 689 31 c 4
 689 20 682 10 662 0 c 5
 651 0 577 2 560 2 c 4
 543 2 513 13 490 34 c 4
 413 118 339 194 265 274 c 5
307 653 m 5
 282 652 279 651 274 644 c 4
 266 634 261 591 261 550 c 4
 261 514 265 480 274 472 c 4
 281 466 291 465 342 465 c 4
 375 465 411 466 423 469 c 4
 465 478 487 516 487 555 c 4
 487 594 465 635 419 648 c 4
 407 652 378 653 340 653 c 6
 307 653 l 5
EndSplineSet
Validated: 1
EndChar

StartChar: Uring
Encoding: 217 366 60
Width: 912
Flags: HW
LayerCount: 2
Fore
SplineSet
283 1021 m 4
 283 1117 361 1196 457 1196 c 4
 553 1196 632 1117 632 1021 c 4
 632 925 553 846 457 846 c 4
 361 846 283 925 283 1021 c 4
387 1021 m 4
 387 982 418 951 457 951 c 4
 496 951 527 982 527 1021 c 4
 527 1060 496 1091 457 1091 c 4
 418 1091 387 1060 387 1021 c 4
188 800 m 4
 262 800 276 775 277 706 c 4
 279 597 278 495 283 377 c 4
 288 309 296 260 333 219 c 4
 368 180 397 165 439 165 c 4
 471 165 542 165 580 211 c 4
 615 253 634 283 639 364 c 5
 639 409 637 515 637 606 c 4
 637 684 638 752 644 760 c 4
 666 793 670 799 739 799 c 4
 821 799 830 770 831 708 c 4
 832 664 832 625 832 587 c 4
 832 505 830 429 827 323 c 4
 827 322 827 320 827 319 c 4
 827 229 763 138 723 97 c 4
 645 18 544 -1 464 -1 c 4
 400 -1 350 11 337 15 c 4
 207 51 130 163 104 262 c 4
 94 298 89 340 85 448 c 4
 83 532 80 612 80 670 c 4
 80 718 82 751 87 759 c 4
 108 791 112 798 175 800 c 4
 180 800 184 800 188 800 c 4
EndSplineSet
Validated: 1
EndChar
